<?xml version="1.0" standalone="no"?>
<!DOCTYPE svg PUBLIC "-//W3C//DTD SVG 20010904//EN"
 "http://www.w3.org/TR/2001/REC-SVG-20010904/DTD/svg10.dtd">
<svg version="1.0" xmlns="http://www.w3.org/2000/svg"
 width="50.000000pt" height="50.000000pt" viewBox="0 0 50.000000 50.000000"
 preserveAspectRatio="xMidYMid meet">

<g transform="translate(0.000000,50.000000) scale(0.100000,-0.100000)"
fill="#000000" stroke="none">
<path d="M390 372 c0 -4 16 -23 35 -42 19 -19 35 -38 35 -42 0 -4 -97 -8 -215
-8 -137 0 -215 -4 -215 -10 0 -6 81 -10 222 -10 l222 0 -42 -43 c-23 -23 -42
-46 -42 -50 0 -18 20 -3 64 48 l47 55 -47 55 c-45 52 -64 66 -64 47z"/>
</g>
</svg>
